<?xml version="1.0" encoding="UTF-8" standalone="no"?>
<svg
   xmlns:dc="http://purl.org/dc/elements/1.1/"
   xmlns:cc="http://creativecommons.org/ns#"
   xmlns:rdf="http://www.w3.org/1999/02/22-rdf-syntax-ns#"
   xmlns:svg="http://www.w3.org/2000/svg"
   xmlns="http://www.w3.org/2000/svg"
   style="fill:none"
   id="svg23"
   version="1.1"
   viewBox="0 0 17.362249 12.6548"
   height="12.6548"
   width="17.362249">
  <metadata
     id="metadata29">
    <rdf:RDF>
      <cc:Work
         rdf:about="">
        <dc:format>image/svg+xml</dc:format>
        <dc:type
           rdf:resource="http://purl.org/dc/dcmitype/StillImage" />
        <dc:title></dc:title>
      </cc:Work>
    </rdf:RDF>
  </metadata>
  <defs
     id="defs27" />
  <mask
     height="50"
     width="269"
     y="0"
     x="0"
     maskUnits="userSpaceOnUse"
     mask-type="alpha"
     id="mask0">
    <path
       style="fill:#141b24"
       id="path4"
       d="M 0,2 C 0,0.895432 0.89543,0 2,0 h 265 c 1.105,0 2,0.895431 2,2 v 46 c 0,1.1046 -0.895,2 -2,2 H 2.00001 C 0.895436,50 0,49.1046 0,48 Z" />
  </mask>
  <path
     d="m 5.6855,9.3325 -3.111,3.1108 -2.195,-2.1955 c -0.506,-0.5055 -0.506,-1.3251 0,-1.8306 l 2.195,-2.1955 z"
     id="path7"
     style="fill:#2fb67d" />
  <path
     d="m 7.8815,5.3063 c 0.506,0.5056 0.506,1.3252 0,1.8307 L 5.6865,9.3325 2.5755,6.2217 5.6865,3.1109 Z"
     id="path9"
     style="fill:#1f6fff" />
  <path
     d="M 5.6855,3.1108 2.5745,6.2216 0.3795,4.0262 c -0.506,-0.5056 -0.506,-1.3252 0,-1.8307 L 2.5745,0 Z"
     id="path11"
     style="fill:#38c4f2" />
  <path
     d="m 14.7345,9.4911 -3.164,3.1637 -2.248,-2.2484 c -0.506,-0.5055 -0.506,-1.3251 0,-1.8307 l 2.248,-2.2483 z"
     id="path13"
     style="fill:#9837e0" />
  <path
     d="m 16.9835,5.4119 c 0.505,0.5055 0.505,1.3252 0,1.8307 l -2.249,2.2483 -3.163,-3.1636 3.163,-3.1637 z"
     id="path15"
     style="fill:#e11f59" />
  <path
     d="M 14.7345,3.1637 11.5705,6.3274 9.3225,4.079 c -0.506,-0.5055 -0.506,-1.3251 0,-1.8307 L 11.5705,0 Z"
     id="path17"
     style="fill:#ffbb00" />
</svg>
