<?xml version="1.0" encoding="UTF-8" standalone="no"?>
<svg
   xmlns:dc="http://purl.org/dc/elements/1.1/"
   xmlns:cc="http://creativecommons.org/ns#"
   xmlns:rdf="http://www.w3.org/1999/02/22-rdf-syntax-ns#"
   xmlns:svg="http://www.w3.org/2000/svg"
   xmlns="http://www.w3.org/2000/svg"
   xmlns:xlink="http://www.w3.org/1999/xlink"
   height="44"
   width="43"
   id="svg16"
   version="1.1"
   viewBox="0 0 43 44">
  <metadata
     id="metadata20">
    <rdf:RDF>
      <cc:Work
         rdf:about="">
        <dc:format>image/svg+xml</dc:format>
        <dc:type
           rdf:resource="http://purl.org/dc/dcmitype/StillImage" />
        <dc:title></dc:title>
      </cc:Work>
    </rdf:RDF>
  </metadata>
  <defs
     id="defs3">
    <path
       d="M 44.5,20 H 24 v 8.5 H 35.8 C 34.7,33.9 30.1,37 24,37 16.8,37 11,31.2 11,24 c 0,-7.2 5.8,-13 13,-13 3.1,0 5.9,1.1 8.1,2.9 L 38.5,7.5 C 34.6,4.1 29.6,2 24,2 11.8,2 2,11.8 2,24 c 0,12.2 9.8,22 22,22 11,0 21,-8 21,-22 0,-1.3 -0.2,-2.7 -0.5,-4 z"
       id="a" />
  </defs>
  <clipPath
     id="b">
    <use
       height="100%"
       width="100%"
       y="0"
       x="0"
       style="overflow:visible"
       id="use5"
       overflow="visible"
       xlink:href="#a" />
  </clipPath>
  <path
     transform="translate(-2,-2)"
     style="fill:#fbbc05"
     id="path8"
     d="M 0,37 V 11 l 17,13 z"
     clip-path="url(#b)" />
  <path
     transform="translate(-2,-2)"
     style="fill:#ea4335"
     id="path10"
     d="M 0,11 17,24 24,17.9 48,14 V 0 H 0 Z"
     clip-path="url(#b)" />
  <path
     transform="translate(-2,-2)"
     style="fill:#34a853"
     id="path12"
     d="M 0,37 30,14 37.9,15 48,0 V 48 H 0 Z"
     clip-path="url(#b)" />
  <path
     transform="translate(-2,-2)"
     style="fill:#4285f4"
     id="path14"
     d="M 48,48 17,24 13,21 48,11 Z"
     clip-path="url(#b)" />
</svg>
