<svg width="40" height="40" viewBox="0 0 40 40" fill="none" xmlns="http://www.w3.org/2000/svg">
<path fill-rule="evenodd" clip-rule="evenodd" d="M3 19.7855C3 12.1878 9.18783 6 16.7855 6C17.6423 6 18.4794 6.08322 19.292 6.23498C20.1047 6.08322 20.9369 6 21.7985 6C28.4662 6 34.048 10.7657 35.3146 17.0677L33.0701 19.3712C32.9 14.6294 29.8209 10.6756 25.5582 9.17224C28.6227 11.7032 30.5711 15.5118 30.5711 19.7855C30.5711 20.5895 30.5021 21.377 30.3698 22.1426L26.3231 26.2958L26.1348 26.1074C27.3536 24.3056 28.0646 22.1306 28.0646 19.7855C28.0646 13.5439 23.0272 8.50646 16.7855 8.50646C10.5439 8.50646 5.50646 13.5439 5.50646 19.7855C5.50646 26.0272 10.5439 31.0646 16.7855 31.0646C18.0172 31.0646 19.202 30.8685 20.3105 30.5056L23.2105 33.4992C22.7462 33.5467 22.2751 33.5711 21.7985 33.5711C20.9369 33.5711 20.1047 33.4879 19.292 33.3361C18.4794 33.4879 17.6423 33.5711 16.7855 33.5711C9.18783 33.5711 3 27.3833 3 19.7855ZM15.5323 13.7544V12.2662H18.0388V13.7544C19.4878 14.2782 20.5452 15.6587 20.5452 17.2791H18.0388C18.0388 16.5692 17.4954 16.0259 16.7855 16.0259C16.0757 16.0259 15.5323 16.5692 15.5323 17.2791C15.5323 17.9889 16.0757 18.5323 16.7855 18.5323C18.8465 18.5323 20.5452 20.231 20.5452 22.292C20.5452 23.9124 19.4878 25.2929 18.0388 25.8167V27.3049H15.5323V25.8167C14.0833 25.2929 13.0259 23.9124 13.0259 22.292H15.5323C15.5323 23.0019 16.0757 23.5452 16.7855 23.5452C17.4954 23.5452 18.0388 23.0019 18.0388 22.292C18.0388 21.5822 17.4954 21.0388 16.7855 21.0388C14.7246 21.0388 13.0259 19.3401 13.0259 17.2791C13.0259 15.6587 14.0833 14.2782 15.5323 13.7544Z" fill="#141B24"/>
<path fill-rule="evenodd" clip-rule="evenodd" d="M26.177 33.0665L20.594 27.563L22.7245 25.4637L26.177 28.868L35.6522 19.5251L37.7812 21.6244L26.177 33.0665Z" fill="#2FB67D"/>
</svg>
