<svg width="40" height="40" viewBox="0 0 40 40" fill="none" xmlns="http://www.w3.org/2000/svg">
<path d="M8.1875 6V30.75H19.5957C19.9381 31.3381 20.353 31.894 20.8525 32.3936C24.043 35.584 29.3281 35.584 32.5186 32.3936C32.6636 32.2485 32.7965 32.0914 32.9375 31.9424V34.875H35V28.6875H28.8125V30.75H31.2295C31.1691 30.8145 31.1328 30.8789 31.0684 30.9434C28.6876 33.3241 24.7157 33.3241 22.335 30.9434C19.9542 28.5626 19.9542 24.5907 22.335 22.21C24.7157 19.8292 28.6876 19.8292 31.0684 22.21C32.1439 23.2855 32.7562 24.6108 32.8408 25.8838L34.9033 25.7227C34.7825 23.9019 33.9164 22.1254 32.5186 20.7275C31.4631 19.6721 30.1741 18.9873 28.8125 18.6328V6H8.1875ZM10.25 8.0625H26.75V13.2188H10.25V8.0625ZM10.25 15.2812H26.75V18.3428C26.7299 18.3428 26.7057 18.3428 26.6855 18.3428C24.5667 18.3428 22.4478 19.1323 20.8525 20.7275C20.6149 20.9652 20.4094 21.2109 20.208 21.4688H10.25V15.2812ZM10.25 23.5312H19.0156C18.3792 25.1748 18.2825 26.9956 18.7256 28.6875H10.25V23.5312Z" fill="#141B24"/>
<path d="M32.9248 34.8625V31.9299V30.7375H31.2168H28.7998V28.675H34.9873V34.8625H32.9248Z" fill="#38C4F2"/>
</svg>
