<svg width="40" height="40" viewBox="0 0 40 40" fill="none" xmlns="http://www.w3.org/2000/svg">
<path d="M20 6.5C15.311 6.5 11.1714 8.87744 8.75 12.5117V8.75H6.5V16.625H14.375V14.375H10.2969C12.2393 11.022 15.834 8.75 20 8.75C26.2271 8.75 31.25 13.7729 31.25 20C31.25 26.2271 26.2271 31.25 20 31.25C13.7729 31.25 8.75 26.2271 8.75 20H6.5C6.5 27.4443 12.5557 33.5 20 33.5C27.4443 33.5 33.5 27.4443 33.5 20C33.5 12.5557 27.4443 6.5 20 6.5Z" fill="#141B24"/>
<path d="M18.9812 22.3137V12.1887H21.2312V20.0637H26.8562V22.3137H18.9812Z" fill="#E11F59"/>
</svg>
