<svg width="40" height="40" viewBox="0 0 40 40" fill="none" xmlns="http://www.w3.org/2000/svg">
<path d="M9.09375 6.625C8.00525 6.625 6.88062 7.03601 5.98633 7.81738C5.09204 8.59875 4.46875 9.80017 4.46875 11.25C4.46875 12.4785 4.98364 13.5264 5.625 14.3574C6.26636 15.1885 7.04321 15.8434 7.75684 16.4893C9.18408 17.781 10.25 18.8424 10.25 20.5C10.25 20.6761 10.0784 21.1007 9.85254 21.4395C9.62671 21.7782 9.41895 21.9814 9.41895 21.9814L11.0811 23.6074C11.0811 23.6074 11.4514 23.2371 11.8037 22.7041C12.1063 22.2479 12.436 21.6608 12.5264 20.8975C12.6573 21.2723 12.7838 21.6563 12.9238 22.0176C13.7188 24.0681 14.6356 25.9064 15.6699 27.293C16.0448 27.7988 16.4332 28.246 16.8623 28.6299C14.473 28.8015 12.5625 30.7888 12.5625 33.2188V34.375H26.4375V33.2188C26.4375 30.7617 24.4908 28.7654 22.0654 28.6299C22.499 28.246 22.9146 27.7943 23.2939 27.293C24.3328 25.9109 25.2361 24.0681 26.04 22.0176C26.1891 21.6337 26.3336 21.2227 26.4736 20.8252C26.5504 21.6201 26.8846 22.2344 27.1963 22.7041C27.5486 23.2371 27.9189 23.6074 27.9189 23.6074L29.5811 21.9814C29.5811 21.9814 29.3733 21.7782 29.1475 21.4395C28.9216 21.1007 28.75 20.6761 28.75 20.5C28.75 18.8424 29.8159 17.781 31.2432 16.4893C31.9568 15.8434 32.7336 15.1885 33.375 14.3574C34.0164 13.5264 34.5313 12.4785 34.5313 11.25C34.5313 9.80017 33.908 8.59875 33.0137 7.81738C32.1194 7.03601 30.9948 6.625 29.9063 6.625C28.4293 6.625 27.4176 7.29797 26.8711 7.78125H12.1289C11.5824 7.29797 10.5707 6.625 9.09375 6.625ZM9.09375 8.9375C9.64026 8.9375 9.99255 9.10913 10.25 9.2627C10.2816 11.6204 10.6881 14.2942 11.334 16.9229C10.7197 16.0918 9.9519 15.4008 9.27441 14.791C8.54273 14.1316 7.87427 13.5219 7.43164 12.9482C6.98901 12.3746 6.78125 11.8778 6.78125 11.25C6.78125 10.4415 7.09741 9.94019 7.54004 9.55176C7.98267 9.16333 8.59241 8.9375 9.09375 8.9375ZM29.9063 8.9375C30.4076 8.9375 31.0173 9.16333 31.46 9.55176C31.9026 9.94019 32.2188 10.4415 32.2188 11.25C32.2188 11.8778 32.011 12.3746 31.5684 12.9482C31.1257 13.5219 30.4573 14.1316 29.7256 14.791C29.0345 15.4143 28.2532 16.1324 27.6299 16.9951C28.2938 14.3484 28.7184 11.652 28.75 9.2627C29.0074 9.10913 29.3597 8.9375 29.9063 8.9375ZM12.707 10.0938H26.293C26.1168 13.5309 25.2271 17.7223 23.8721 21.1865C23.1223 23.1016 22.2551 24.7637 21.415 25.8838C20.575 27.0039 19.8071 27.4375 19.4639 27.4375C19.1251 27.4375 18.3844 27.0039 17.5488 25.8838C16.7133 24.7637 15.837 23.1061 15.0918 21.1865C13.7459 17.7178 12.8832 13.5128 12.707 10.0938ZM17.1875 30.9063H21.8125C22.6436 30.9063 23.2126 31.4166 23.6191 32.0625H15.3809C15.7874 31.4166 16.3564 30.9063 17.1875 30.9063Z" fill="#141B24"/>
<path d="M18.3438 19.3438V13.5625H20.6562V19.3438H18.3438Z" fill="#2FB67D"/>
</svg>
