<svg width="40" height="40" viewBox="0 0 40 40" fill="none" xmlns="http://www.w3.org/2000/svg">
<path d="M6.5 6.50003V8.75003H10.6133C7.39648 11.4351 5.375 15.4341 5.375 20C5.375 28.0376 11.9624 34.625 20 34.625C28.0376 34.625 34.625 28.0376 34.625 20V18.875H32.375V20C32.375 26.8116 26.8115 32.375 20 32.375C13.1885 32.375 7.625 26.8116 7.625 20C7.625 15.5703 9.83984 11.857 13.25 9.62894V15.5H15.5V6.50003H6.5Z" fill="#141B24"/>
<path d="M20 7.625V5.375H21.125V7.625H20Z" fill="#E11F59"/>
<path d="M22.918 8.01172L23.5508 5.86719L24.5 6.11328L24.5352 6.14844H24.5703L25.5195 6.5H25.5547L25.5898 6.53516L25.6953 6.57031L24.7461 8.60937H24.7109L24.6406 8.57422L23.8672 8.29297L23.7969 8.25781L22.918 8.01172Z" fill="#E11F59"/>
<path d="M26.5039 9.52344L27.6992 7.625L28.2969 8.01172L28.332 8.04687H28.3672L29.1406 8.64453L29.1758 8.67969H29.2109L29.5273 8.96094L28.0508 10.6484L27.8047 10.4375L27.7344 10.4023L27.1016 9.91016L27.0312 9.875L26.5039 9.52344Z" fill="#E11F59"/>
<path d="M29.4219 12.0195L31.1445 10.543L31.3906 10.8594L31.4609 10.9297L32.0586 11.7031V11.7383L32.0938 11.7734L32.4805 12.3711L30.582 13.6016L30.2656 13.0742L30.1953 13.0039L29.7031 12.3359L29.668 12.3008L29.4219 12.0195Z" fill="#E11F59"/>
<path d="M31.4961 15.3242L33.5352 14.375L33.5703 14.5156L33.6055 14.5508V14.5859L33.957 15.5V15.5352L33.9922 15.6055L34.2383 16.5547L32.0938 17.1523L31.8477 16.2734L31.8125 16.2031L31.5312 15.4297L31.4961 15.3594V15.3242Z" fill="#E11F59"/>
</svg>
