<svg width="40" height="40" viewBox="0 0 40 40" fill="none" xmlns="http://www.w3.org/2000/svg">
<path d="M21.0667 14.2727V16.3636H30.6667V14.2727H21.0667Z" fill="#141B24"/>
<path d="M21.0667 17.4091V19.5H28.5333V17.4091H21.0667Z" fill="#141B24"/>
<path d="M21.0667 20.5455V22.6364H30.6667V20.5455H21.0667Z" fill="#141B24"/>
<path d="M21.0667 23.6818V25.7727H28.5333V23.6818H21.0667Z" fill="#141B24"/>
<path fill-rule="evenodd" clip-rule="evenodd" d="M4 8V31H36V8H4ZM6.13333 10.0909H33.8667V28.9091H6.13333V10.0909Z" fill="#141B24"/>
<path fill-rule="evenodd" clip-rule="evenodd" d="M10.6406 14.6437H9.53955V20.5792H18.3482V14.6437H12.2922V14.1041H10.6406V14.6437ZM14.7697 18.9604C15.5298 18.9604 16.146 18.3565 16.146 17.6115C16.146 16.8664 15.5298 16.2625 14.7697 16.2625C14.0095 16.2625 13.3933 16.8664 13.3933 17.6115C13.3933 18.3565 14.0095 18.9604 14.7697 18.9604Z" fill="#1F6FFF"/>
</svg>
