<svg width="40" height="40" viewBox="0 0 40 40" fill="none" xmlns="http://www.w3.org/2000/svg">
<path d="M17.6445 5L12.7695 14.75H5V34.25H27.9658C29.6845 34.25 31.1841 33.036 31.5459 31.3555L34.1738 19.168C34.6547 16.9161 32.8932 14.75 30.5938 14.75H21.1104C21.2008 13.9883 21.2199 13.2218 21.7959 11.4746C22.1672 10.3463 22.0625 9.30847 22.0625 8.65625C22.0625 7.74695 21.6959 6.90906 21.0723 6.21875C20.4486 5.52844 19.5107 5 18.4063 5H17.6445ZM19.0156 7.74219C19.0918 7.79932 19.2156 7.78027 19.2822 7.85645C19.5107 8.10876 19.625 8.4563 19.625 8.65625C19.625 9.44653 19.6488 10.1844 19.4727 10.7129C18.5634 13.4694 18.4063 15.8926 18.4063 15.8926L18.3301 17.1875H30.5938C31.3983 17.1875 31.9411 17.8873 31.7744 18.6729L29.1846 30.8603C29.0608 31.4316 28.5466 31.8125 27.9658 31.8125H14.75V16.2734L19.0156 7.74219ZM7.4375 17.1875H12.3125V31.8125H7.4375V17.1875Z" fill="#141B24"/>
<path d="M8.30249 29.375C8.30249 28.5088 9.00892 27.8024 9.87507 27.8024C10.7412 27.8024 11.4477 28.5088 11.4477 29.375C11.4477 30.2411 10.7412 30.9476 9.87507 30.9476C9.00892 30.9476 8.30249 30.2411 8.30249 29.375Z" fill="#4B0096"/>
</svg>
