<svg width="26" height="26" viewBox="0 0 26 26" fill="none" xmlns="http://www.w3.org/2000/svg">
<path d="M8.66495 2.6001C5.32048 2.6001 2.59998 5.32312 2.59998 8.66846V17.3351C2.59998 20.6796 5.323 23.4001 8.66833 23.4001H17.335C20.6795 23.4001 23.4 20.6771 23.4 17.3317V8.66507C23.4 5.3206 20.6769 2.6001 17.3316 2.6001H8.66495ZM19.0666 6.06676C19.545 6.06676 19.9333 6.45503 19.9333 6.93343C19.9333 7.41183 19.545 7.8001 19.0666 7.8001C18.5882 7.8001 18.2 7.41183 18.2 6.93343C18.2 6.45503 18.5882 6.06676 19.0666 6.06676ZM13 7.8001C15.8678 7.8001 18.2 10.1323 18.2 13.0001C18.2 15.8679 15.8678 18.2001 13 18.2001C10.1322 18.2001 7.79998 15.8679 7.79998 13.0001C7.79998 10.1323 10.1322 7.8001 13 7.8001ZM13 9.53343C12.0806 9.53343 11.1988 9.89867 10.5487 10.5488C9.89855 11.1989 9.53331 12.0807 9.53331 13.0001C9.53331 13.9195 9.89855 14.8013 10.5487 15.4514C11.1988 16.1015 12.0806 16.4668 13 16.4668C13.9194 16.4668 14.8012 16.1015 15.4513 15.4514C16.1014 14.8013 16.4666 13.9195 16.4666 13.0001C16.4666 12.0807 16.1014 11.1989 15.4513 10.5488C14.8012 9.89867 13.9194 9.53343 13 9.53343Z" fill="#71767E"/>
</svg>
