<svg width="26" height="26" viewBox="0 0 26 26" fill="none" xmlns="http://www.w3.org/2000/svg">
<path d="M22.75 6.95386C22.0327 7.27124 21.2615 7.48706 20.4521 7.58227C21.2773 7.08716 21.9121 6.30322 22.2104 5.37012C21.4392 5.82715 20.5823 6.1604 19.6714 6.34131C18.9414 5.56372 17.9004 5.07495 16.7515 5.07495C14.5425 5.07495 12.7493 6.86816 12.7493 9.07715C12.7493 9.39136 12.7842 9.69604 12.854 9.98804C9.52783 9.823 6.57935 8.22974 4.6084 5.80811C4.26245 6.39844 4.06567 7.08716 4.06567 7.82031C4.06567 9.20727 4.77026 10.4324 5.84619 11.1497C5.18921 11.1274 4.57349 10.9497 4.03394 10.6482C4.03394 10.6672 4.03394 10.6831 4.03394 10.699C4.03394 12.6382 5.41138 14.2568 7.24268 14.6218C6.90625 14.7139 6.55395 14.7646 6.18897 14.7646C5.93188 14.7646 5.67798 14.7393 5.43677 14.6917C5.94458 16.2817 7.42358 17.437 9.17236 17.4719C7.80444 18.5447 6.07788 19.1826 4.20532 19.1826C3.88159 19.1826 3.56421 19.1636 3.25 19.1255C5.021 20.2617 7.12207 20.925 9.38184 20.925C16.7419 20.925 20.7664 14.8281 20.7664 9.54053C20.7664 9.36914 20.76 9.19458 20.7537 9.02319C21.5344 8.45825 22.2136 7.75366 22.75 6.95386Z" fill="#71767E"/>
</svg>
