<svg width="26" height="26" viewBox="0 0 26 26" fill="none" xmlns="http://www.w3.org/2000/svg">
<path d="M21.32 2.08008H4.67996C3.24476 2.08008 2.07996 3.24488 2.07996 4.68008V21.3201C2.07996 22.7553 3.24476 23.9201 4.67996 23.9201H21.32C22.7552 23.9201 23.92 22.7553 23.92 21.3201V4.68008C23.92 3.24488 22.7552 2.08008 21.32 2.08008ZM8.83996 10.4001V20.2801H5.71996V10.4001H8.83996ZM5.71996 7.52448C5.71996 6.79648 6.34396 6.24008 7.27996 6.24008C8.21596 6.24008 8.80356 6.79648 8.83996 7.52448C8.83996 8.25248 8.25756 8.84008 7.27996 8.84008C6.34396 8.84008 5.71996 8.25248 5.71996 7.52448ZM20.28 20.2801H17.16C17.16 20.2801 17.16 15.4649 17.16 15.0801C17.16 14.0401 16.64 13.0001 15.34 12.9793H15.2984C14.04 12.9793 13.52 14.0505 13.52 15.0801C13.52 15.5533 13.52 20.2801 13.52 20.2801H10.4V10.4001H13.52V11.7313C13.52 11.7313 14.5236 10.4001 16.5412 10.4001C18.6056 10.4001 20.28 11.8197 20.28 14.6953V20.2801Z" fill="#71767E"/>
</svg>
