<svg width="514" height="99" viewBox="0 0 514 99" fill="none" xmlns="http://www.w3.org/2000/svg">
<g clip-path="url(#clip0)">
<path d="M107.899 51.0743C108.53 57.6162 113.416 63.4487 122.717 63.4487C129.889 63.4487 133.594 59.5866 133.594 55.094C133.594 51.2319 130.914 48.2368 125.082 47.0545L114.362 44.69C101.515 41.8525 94.8153 33.4978 94.8153 23.4878C94.8153 10.7193 106.402 0 121.535 0C141.87 0 148.412 13.1627 149.594 20.3351L134.934 24.5125C134.303 20.3351 131.229 13.6356 121.456 13.6356C115.308 13.6356 110.973 17.4977 110.973 21.9903C110.973 25.8524 113.811 28.6899 118.303 29.6357L129.338 31.8426C143.21 34.8377 150.382 43.1924 150.382 53.9117C150.382 64.9463 141.397 77.2419 122.875 77.2419C101.83 77.2419 93.7118 63.4487 92.8448 55.2516L107.899 51.0743Z" fill="white"/>
<path d="M174.422 74.9562H157.082V2.20694H173.949V7.88185C178.836 0.236482 186.244 0.0788455 195.466 0.157664C213.279 0.3153 221.791 13.005 221.791 29.0052V75.035H204.451V32.0002C204.451 23.015 200.432 15.8425 189.476 15.8425C179.624 15.8425 174.422 23.4879 174.422 33.0249V74.9562Z" fill="white"/>
<path d="M261.752 76.9267C240.392 76.9267 226.678 60.0596 226.678 38.2269C226.678 17.1824 240.55 0.157669 261.516 0.157669C274.363 0.157669 278.383 3.46804 282.875 7.80304V2.28576H299.743V61.7147C299.743 67.7049 300.373 73.5375 300.452 75.035H283.9C283.585 73.3799 283.348 72.3552 283.191 68.7296C279.723 73.0646 272.235 76.9267 261.752 76.9267ZM263.723 61.9512C275.072 61.9512 282.954 52.2565 282.954 38.2269C282.954 24.1972 275.151 15.212 263.723 15.212C252.057 15.212 244.018 24.1972 244.018 38.2269C244.018 52.0989 251.663 61.9512 263.723 61.9512Z" fill="white"/>
<path d="M311.408 98.6017V2.20692H328.117V7.88184C335.132 3.07392 340.098 0.630554 351.29 0.630554C372.807 0.630554 384.866 17.0248 384.866 38.5422C384.866 60.3748 371.546 76.769 350.659 76.769C340.177 76.769 335.132 73.5375 328.59 68.8084V98.6805H311.408V98.6017ZM347.98 16.0001C336.63 16.0001 328.433 24.9854 328.433 38.5422C328.433 52.4142 336.63 61.3995 347.98 61.3995C359.487 61.3995 367.526 52.4142 367.526 38.5422C367.526 24.9066 359.645 16.0001 347.98 16.0001Z" fill="white"/>
<path d="M391.172 98.8381V2.44333H407.881V8.03943C414.896 3.1527 419.862 0.788147 431.054 0.788147C452.571 0.788147 464.63 17.1823 464.63 38.6997C464.63 60.5324 451.31 76.9266 430.423 76.9266C419.94 76.9266 414.896 73.6951 408.354 68.966V98.8381H391.172ZM427.743 16.1577C416.394 16.1577 408.197 25.143 408.197 38.6997C408.197 52.5718 416.394 61.557 427.743 61.557C439.251 61.557 447.29 52.5718 447.29 38.6997C447.29 25.143 439.409 16.1577 427.743 16.1577Z" fill="white"/>
<path d="M513.498 19.3893C511.527 19.074 509.636 18.9164 507.823 18.9164C494.345 18.9164 488.276 26.7194 488.276 40.2762V74.9562H470.936V2.20693H487.803V7.64539C495.133 0.70938 500.256 0.709381 508.847 1.33993C510.897 1.49756 512.709 1.6552 513.498 1.81284V19.3893Z" fill="white"/>
</g>
<path d="M19.7518 0H39.0057V13.0345C39.0057 16.4694 36.2212 19.2538 32.7864 19.2538H19.7518V0Z" fill="#34C88A"/>
<path d="M0.498047 6.21929C0.498047 2.78447 3.28252 0 6.71734 0H19.7519V19.2538H0.498047V6.21929Z" fill="#2B87F9"/>
<path d="M0.498047 19.254H19.7519V32.2885C19.7519 35.7234 16.9674 38.5078 13.5326 38.5078H0.498047V19.254Z" fill="#0EC4FF"/>
<path d="M38.6483 76.6349L19.3945 76.6349L19.3945 63.6003C19.3945 60.1655 22.179 57.381 25.6138 57.381L38.6483 57.381L38.6483 76.6349Z" fill="#7D2EFF"/>
<path d="M57.9021 70.4156C57.9021 73.8504 55.1176 76.6349 51.6828 76.6349L38.6483 76.6349L38.6483 57.381L57.9021 57.381L57.9021 70.4156Z" fill="#E11F59"/>
<path d="M57.9021 57.3815L38.6483 57.3815L38.6483 44.3469C38.6483 40.9121 41.4327 38.1276 44.8676 38.1276L57.9021 38.1276L57.9021 57.3815Z" fill="#FFBB00"/>
<defs>
<clipPath id="clip0">
<rect width="420.653" height="98.8381" fill="white" transform="translate(92.8448)"/>
</clipPath>
</defs>
</svg>
