<svg width="30" height="26" viewBox="0 0 26 26" fill="none" xmlns="http://www.w3.org/2000/svg">
<path d="M20.5833 3.25H5.41667C4.21958 3.25 3.25 4.21958 3.25 5.41667V20.5833C3.25 21.7804 4.21958 22.75 5.41667 22.75H13.6728V15.2089H11.1345V12.2568H13.6728V10.0848C13.6728 7.56708 15.2122 6.1945 17.459 6.1945C18.2162 6.19233 18.9724 6.23133 19.7253 6.30825V8.94075H18.1783C16.9542 8.94075 16.7158 9.51925 16.7158 10.3729V12.2525H19.6408L19.2606 15.2046H16.6985V22.75H20.5833C21.7804 22.75 22.75 21.7804 22.75 20.5833V5.41667C22.75 4.21958 21.7804 3.25 20.5833 3.25Z" fill="#71767E"/>
</svg>
