<?xml version="1.0" encoding="utf-8"?>
<!-- Generator: Adobe Illustrator 24.2.1, SVG Export Plug-In . SVG Version: 6.00 Build 0)  -->
<svg version="1.1" id="Layer_1" xmlns="http://www.w3.org/2000/svg" xmlns:xlink="http://www.w3.org/1999/xlink" x="0px" y="0px"
	 viewBox="0 0 480 480" style="enable-background:new 0 0 480 480;" xml:space="preserve">
<style type="text/css">
	.st0{fill:#71767E;}
</style>
<g transform="translate(0.000000,480.000000) scale(0.100000,-0.100000)">
	<path class="st0" d="M2632,3732l-162-2l2-1188l3-1187h170h170l3,38c4,43,5,43,40,19c36-25,134-66,207-89c47-14,93-18,215-18
		c135,0,165,3,230,23c236,74,426,238,524,454c111,243,98,518-38,763c-54,97-196,237-301,297c-137,79-216,100-385,106
		c-114,3-159,0-210-13c-82-21-184-61-232-92c-21-12-40-23-43-23s-6,206-7,457c-2,295-7,457-13,457C2800,3735,2722,3734,2632,3732z
		 M3438,2569c105-35,212-130,267-239c59-116,59-293,0-410c-54-107-168-207-279-244c-245-83-519,61-596,313c-68,218,40,460,247,559
		C3195,2604,3310,2610,3438,2569z"/>
	<path class="st0" d="M1260,2930c-339-91-585-373-621-713c-19-180,20-359,109-511c108-181,260-302,469-372c106-36,303-45,417-19
		c204,45,396,172,509,337c44,64,106,200,109,239l3,34h-180h-179l-38-56c-111-168-318-252-503-204c-362,95-485,532-223,793
		c217,217,572,174,734-89l37-59h180h180l-7,42c-8,48-70,183-114,247c-51,76-169,185-251,235c-44,26-119,62-168,79
		c-80,28-101,31-238,34C1359,2950,1323,2947,1260,2930z"/>
</g>
</svg>
